<svg width="18" height="22" viewBox="0 0 18 22" fill="none" xmlns="http://www.w3.org/2000/svg">
<path d="M14.6856 11.9187C14.6593 9.28052 16.837 8.01518 16.9343 7.95126C15.7105 6.16183 13.8038 5.9163 13.1252 5.88836C11.5038 5.72368 9.95991 6.8434 9.13738 6.8434C8.31654 6.8434 7.04569 5.91249 5.70119 5.9362C3.9325 5.96244 2.30225 6.9649 1.39208 8.54816C-0.444758 11.7346 0.922184 16.4569 2.71203 19.043C3.58706 20.3071 4.63058 21.7295 5.99964 21.6774C7.31917 21.6253 7.817 20.824 9.41212 20.824C11.0072 20.824 11.4551 21.6774 12.8509 21.6507C14.2699 21.6249 15.1694 20.3625 16.0373 19.0934C17.0418 17.6248 17.4554 16.2029 17.48 16.1309C17.4491 16.1165 14.7139 15.0688 14.6856 11.9187Z" fill="#A5B4CB"/>
<path d="M12.063 4.17684C12.7891 3.29546 13.281 2.07076 13.1472 0.851562C12.0995 0.893896 10.8311 1.54794 10.0789 2.42848C9.40494 3.20995 8.81566 4.45412 8.97356 5.65131C10.1424 5.7419 11.3345 5.05653 12.063 4.17684Z" fill="#A5B4CB"/>
</svg>
