<svg width="114" height="114" viewBox="0 0 114 114" fill="none" xmlns="http://www.w3.org/2000/svg">
<path fill-rule="evenodd" clip-rule="evenodd" d="M57 109.25C28.1431 109.25 4.75 85.8569 4.75 57C4.75 28.1431 28.1431 4.75 57 4.75C85.8569 4.75 109.25 28.1431 109.25 57C109.25 85.8569 85.8569 109.25 57 109.25ZM57 99.75C80.6102 99.75 99.75 80.6102 99.75 57C99.75 33.3898 80.6102 14.25 57 14.25C33.3898 14.25 14.25 33.3898 14.25 57C14.25 80.6102 33.3898 99.75 57 99.75ZM72.6412 39.3912L47.5 64.5325L36.6088 53.6412L29.8912 60.3588L47.5 77.9675L79.3588 46.1088L72.6412 39.3912Z" fill="#6DC100"/>
</svg>
