<svg width="24" height="24" viewBox="0 0 24 24" fill="none" xmlns="http://www.w3.org/2000/svg">
<path d="M3.24994 9.65002C3.13327 9.56669 3.06227 9.46269 3.03694 9.33802C3.0116 9.21336 3.04927 9.08402 3.14994 8.95002C4.18327 7.53336 5.47927 6.43336 7.03794 5.65002C8.5966 4.86669 10.2589 4.47502 12.0249 4.47502C13.7916 4.47502 15.4583 4.85436 17.0249 5.61302C18.5916 6.37169 19.8999 7.46736 20.9499 8.90002C21.0499 9.05002 21.0833 9.18336 21.0499 9.30002C21.0166 9.41669 20.9499 9.51669 20.8499 9.60002C20.7499 9.68336 20.6333 9.72102 20.4999 9.71302C20.3666 9.70502 20.2499 9.63402 20.1499 9.50002C19.2333 8.20002 18.0543 7.20436 16.6129 6.51302C15.1716 5.82169 13.6423 5.47569 12.0249 5.47502C10.4083 5.47502 8.8916 5.82102 7.47494 6.51302C6.05827 7.20502 4.88327 8.20069 3.94994 9.50002C3.84994 9.65002 3.73327 9.73336 3.59994 9.75002C3.4666 9.76669 3.34994 9.73336 3.24994 9.65002ZM14.8499 21.975C13.1166 21.5417 11.6999 20.679 10.5999 19.387C9.49994 18.095 8.94994 16.516 8.94994 14.65C8.94994 13.8167 9.24994 13.1167 9.84994 12.55C10.4499 11.9834 11.1749 11.7 12.0249 11.7C12.8749 11.7 13.5999 11.9834 14.1999 12.55C14.7999 13.1167 15.0999 13.8167 15.0999 14.65C15.0999 15.2 15.3083 15.6627 15.7249 16.038C16.1416 16.4134 16.6333 16.6007 17.1999 16.6C17.7666 16.6 18.2499 16.4127 18.6499 16.038C19.0499 15.6634 19.2499 15.2007 19.2499 14.65C19.2499 12.7167 18.5416 11.0917 17.1249 9.77502C15.7083 8.45836 14.0166 7.80002 12.0499 7.80002C10.0833 7.80002 8.3916 8.45836 6.97494 9.77502C5.55827 11.0917 4.84994 12.7084 4.84994 14.625C4.84994 15.025 4.8876 15.525 4.96294 16.125C5.03827 16.725 5.21727 17.425 5.49994 18.225C5.54994 18.375 5.54594 18.5084 5.48794 18.625C5.42994 18.7417 5.33394 18.825 5.19994 18.875C5.0666 18.925 4.9376 18.921 4.81294 18.863C4.68827 18.805 4.6006 18.709 4.54994 18.575C4.29994 17.925 4.12094 17.2794 4.01294 16.638C3.90494 15.9967 3.8506 15.334 3.84994 14.65C3.84994 12.4334 4.65427 10.575 6.26294 9.07502C7.8716 7.57502 9.79227 6.82502 12.0249 6.82502C14.2749 6.82502 16.2083 7.57502 17.8249 9.07502C19.4416 10.575 20.2499 12.4334 20.2499 14.65C20.2499 15.4834 19.9543 16.179 19.3629 16.737C18.7716 17.295 18.0506 17.5744 17.1999 17.575C16.3499 17.575 15.6209 17.296 15.0129 16.738C14.4049 16.18 14.1006 15.484 14.0999 14.65C14.0999 14.1 13.8959 13.6374 13.4879 13.262C13.0799 12.8867 12.5923 12.6994 12.0249 12.7C11.4583 12.7 10.9706 12.8877 10.5619 13.263C10.1533 13.6384 9.94927 14.1007 9.94994 14.65C9.94994 16.2667 10.4293 17.6167 11.3879 18.7C12.3466 19.7834 13.5839 20.5417 15.0999 20.975C15.2499 21.025 15.3499 21.1084 15.3999 21.225C15.4499 21.3417 15.4583 21.4667 15.4249 21.6C15.3916 21.7167 15.3249 21.8167 15.2249 21.9C15.1249 21.9834 14.9999 22.0084 14.8499 21.975ZM6.49994 4.42502C6.3666 4.50836 6.23327 4.52936 6.09994 4.48802C5.9666 4.44669 5.8666 4.35902 5.79994 4.22502C5.73327 4.09169 5.7166 3.97102 5.74994 3.86302C5.78327 3.75502 5.8666 3.65902 5.99994 3.57502C6.93327 3.07502 7.90827 2.69169 8.92494 2.42502C9.9416 2.15836 10.9749 2.02502 12.0249 2.02502C13.0916 2.02502 14.1333 2.15436 15.1499 2.41302C16.1666 2.67169 17.1499 3.04236 18.0999 3.52502C18.2499 3.60836 18.3376 3.70836 18.3629 3.82502C18.3883 3.94169 18.3756 4.05836 18.3249 4.17502C18.2749 4.29169 18.1916 4.38336 18.0749 4.45002C17.9583 4.51669 17.8166 4.50836 17.6499 4.42502C16.7666 3.97502 15.8539 3.62936 14.9119 3.38802C13.9699 3.14669 13.0076 3.02569 12.0249 3.02502C11.0583 3.02502 10.1083 3.13769 9.17494 3.36302C8.2416 3.58836 7.34994 3.94236 6.49994 4.42502ZM9.44994 21.625C8.4666 20.5917 7.7126 19.5377 7.18794 18.463C6.66327 17.3884 6.4006 16.1174 6.39994 14.65C6.39994 13.1334 6.94994 11.854 8.04994 10.812C9.14994 9.77003 10.4749 9.24936 12.0249 9.25002C13.5749 9.25002 14.9083 9.77102 16.0249 10.813C17.1416 11.855 17.6999 13.134 17.6999 14.65C17.6999 14.8 17.6543 14.921 17.5629 15.013C17.4716 15.105 17.3506 15.1507 17.1999 15.15C17.0666 15.15 16.9499 15.1044 16.8499 15.013C16.7499 14.9217 16.6999 14.8007 16.6999 14.65C16.6999 13.4 16.2373 12.3544 15.3119 11.513C14.3866 10.6717 13.2909 10.2507 12.0249 10.25C10.7583 10.25 9.67094 10.671 8.76294 11.513C7.85494 12.355 7.4006 13.4007 7.39994 14.65C7.39994 16 7.63327 17.146 8.09994 18.088C8.5666 19.03 9.24994 19.9757 10.1499 20.925C10.2499 21.025 10.2999 21.1417 10.2999 21.275C10.2999 21.4084 10.2499 21.525 10.1499 21.625C10.0499 21.725 9.93327 21.775 9.79994 21.775C9.6666 21.775 9.54994 21.725 9.44994 21.625ZM16.9999 19.925C15.5166 19.925 14.2289 19.425 13.1369 18.425C12.0449 17.425 11.4993 16.1667 11.4999 14.65C11.4999 14.5167 11.5459 14.4 11.6379 14.3C11.7299 14.2 11.8506 14.15 11.9999 14.15C12.1499 14.15 12.2709 14.2 12.3629 14.3C12.4549 14.4 12.5006 14.5167 12.4999 14.65C12.4999 15.9 12.9499 16.925 13.8499 17.725C14.7499 18.525 15.7999 18.925 16.9999 18.925C17.0999 18.925 17.2416 18.9167 17.4249 18.9C17.6083 18.8834 17.7999 18.8584 17.9999 18.825C18.1499 18.7917 18.2793 18.8127 18.3879 18.888C18.4966 18.9634 18.5673 19.0757 18.5999 19.225C18.6333 19.3584 18.6083 19.475 18.5249 19.575C18.4416 19.675 18.3333 19.7417 18.1999 19.775C17.8999 19.8584 17.6376 19.9044 17.4129 19.913C17.1883 19.9217 17.0506 19.9257 16.9999 19.925Z" fill="black"/>
</svg>
