<svg width="24" height="24" viewBox="0 0 24 24" fill="none" xmlns="http://www.w3.org/2000/svg">
<path d="M22.0051 10.3637C18.7381 10.3621 15.4712 10.3629 12.2042 10.3633C12.2047 11.7184 12.2026 13.0734 12.205 14.428C14.097 14.4276 15.989 14.4272 17.8806 14.428C17.6614 15.7265 16.8897 16.9139 15.7954 17.6449C15.1075 18.1075 14.3171 18.4077 13.5023 18.5504C12.6822 18.6904 11.8348 18.7083 11.0168 18.5427C10.1849 18.3767 9.39083 18.0301 8.6981 17.5415C7.59041 16.7633 6.74507 15.6248 6.31103 14.3433C5.86721 13.04 5.86395 11.5897 6.31306 10.2876C6.62467 9.36989 7.14333 8.52213 7.82468 7.83223C8.66512 6.97185 9.75778 6.3568 10.935 6.10458C11.943 5.8894 13.006 5.93046 13.9929 6.22903C14.8317 6.48371 15.605 6.94336 16.2384 7.54826C16.8787 6.91161 17.5157 6.27133 18.1548 5.63349C18.49 5.29017 18.8423 4.96188 19.1669 4.60921C18.1963 3.71099 17.0585 2.98895 15.8153 2.53252C13.5771 1.7088 11.053 1.69132 8.79978 2.47118C6.26056 3.34049 4.09845 5.23937 2.89967 7.63948C2.48231 8.4665 2.17759 9.34923 1.99454 10.2572C1.53405 12.5193 1.85502 14.9313 2.89844 16.9916C3.57657 18.3365 4.54879 19.532 5.7281 20.4693C6.8407 21.3565 8.13752 22.0119 9.5125 22.3776C11.2475 22.8429 13.0943 22.8324 14.8407 22.4349C16.419 22.0717 17.9124 21.3175 19.1047 20.2167C20.3649 19.0585 21.2639 17.5327 21.7399 15.8929C22.259 14.1042 22.3305 12.1947 22.0051 10.3637Z" fill="#A5B4CB"/>
</svg>
