<svg width="135" height="72" viewBox="0 0 135 72" fill="none" xmlns="http://www.w3.org/2000/svg">
<path d="M77.9193 13.9893C77.9235 15.68 77.598 17.3707 76.9679 18.9459C76.3399 20.5211 75.4032 21.9766 74.2271 23.2136C71.8853 25.7045 68.5144 27.2587 65.0028 27.3763C63.2512 27.4393 61.4723 27.16 59.8068 26.532C58.1455 25.8998 56.5955 24.9379 55.2933 23.6967C53.9933 22.4575 52.9389 20.9454 52.2269 19.2799C51.872 18.4461 51.5969 17.5786 51.4163 16.6902C51.2377 15.8018 51.1453 14.8945 51.1411 13.9893C51.1453 12.1768 51.5087 10.3601 52.2248 8.69668C52.9368 7.03118 53.9891 5.519 55.2912 4.27775C56.5913 3.0344 58.1434 2.07458 59.8047 1.44241C61.4702 0.812333 63.2512 0.537202 65.0028 0.598109C68.5144 0.715723 71.8874 2.27411 74.2292 4.76501C75.4053 6.00416 76.3399 7.45963 76.97 9.03482C77.6001 10.6079 77.9256 12.3007 77.9214 13.9914L77.9193 13.9893ZM77.9193 13.9893C77.9151 12.2986 77.5749 10.6079 76.907 9.05792C76.2412 7.50794 75.2583 6.10077 74.0444 4.94773C72.8304 3.79259 71.3833 2.90208 69.8376 2.31821C68.2876 1.73854 66.6326 1.48441 65.0028 1.54742C61.7369 1.66714 58.618 3.11841 56.4485 5.43499C55.3584 6.58593 54.4931 7.93639 53.9113 9.39607C53.3296 10.8557 53.0292 12.4204 53.0313 13.9893C53.0292 15.5582 53.3275 17.125 53.9093 18.5847C54.4889 20.0443 55.3542 21.3969 56.4443 22.5478C58.6138 24.8644 61.7348 26.3157 65.0028 26.4354C66.6326 26.4963 68.2876 26.2443 69.8376 25.6625C71.3833 25.0765 72.8304 24.186 74.0444 23.0309C75.2583 21.8779 76.2412 20.4686 76.907 18.9186C77.5749 17.3686 77.9151 15.6779 77.9193 13.9872V13.9893Z" fill="url(#paint0_linear_27_313)"/>
<path d="M84.4197 58.8969V15.9509H123.965V23.8836H92.3523V33.4271H117.761V41.4207H92.3523V58.8969H84.4197Z" fill="url(#paint1_linear_27_313)"/>
<path d="M127.187 20.8424V12.9685H135V20.8424H127.187ZM127.187 58.8968V24.3015H135V58.8968H127.187Z" fill="url(#paint2_linear_27_313)"/>
<path d="M36.3239 28.5546L22.7247 46.6861H21.1747L7.87385 28.4937V58.8529H0V17.0999H9.06679L22.1304 35.0528L35.1939 17.0999H44.1998V58.8529H36.326V28.5525L36.3239 28.5546Z" fill="url(#paint3_linear_27_313)"/>
<path d="M80.7021 29.3905L62.7492 71.0826H54.7556L60.2436 58.3173L48.4927 29.3884H56.963L61.4365 42.0929L64.2404 50.3825L67.2815 42.2714L72.6498 29.3884H80.7021V29.3905Z" fill="url(#paint4_linear_27_313)"/>
<path d="M67.5399 12.2567C67.5399 16.1863 61.5836 16.1863 61.5836 12.2567C61.5836 8.32718 67.5399 8.32718 67.5399 12.2567ZM62.0394 17.9232V38.3986H67.0863V17.9232H62.0394Z" fill="url(#paint5_linear_27_313)"/>
<defs>
<linearGradient id="paint0_linear_27_313" x1="51.1411" y1="13.9872" x2="78.8644" y2="13.9872" gradientUnits="userSpaceOnUse">
<stop stop-color="#007BC2"/>
<stop offset="1" stop-color="#00377C"/>
</linearGradient>
<linearGradient id="paint1_linear_27_313" x1="84.4197" y1="37.4239" x2="123.965" y2="37.4239" gradientUnits="userSpaceOnUse">
<stop stop-color="#1A1A1A"/>
<stop offset="1" stop-color="#4D4D4D"/>
</linearGradient>
<linearGradient id="paint2_linear_27_313" x1="127.187" y1="35.9327" x2="135" y2="35.9327" gradientUnits="userSpaceOnUse">
<stop stop-color="#1A1A1A"/>
<stop offset="1" stop-color="#4D4D4D"/>
</linearGradient>
<linearGradient id="paint3_linear_27_313" x1="0" y1="37.9806" x2="44.1977" y2="37.9806" gradientUnits="userSpaceOnUse">
<stop stop-color="#007BC2"/>
<stop offset="1" stop-color="#00377C"/>
</linearGradient>
<linearGradient id="paint4_linear_27_313" x1="48.4927" y1="50.2376" x2="80.7021" y2="50.2376" gradientUnits="userSpaceOnUse">
<stop stop-color="#007BC2"/>
<stop offset="1" stop-color="#00377C"/>
</linearGradient>
<linearGradient id="paint5_linear_27_313" x1="61.5815" y1="23.8543" x2="67.5399" y2="23.8543" gradientUnits="userSpaceOnUse">
<stop stop-color="#1A1A1A"/>
<stop offset="1" stop-color="#4D4D4D"/>
</linearGradient>
</defs>
</svg>
