<svg width="122" height="89" viewBox="0 0 122 89" fill="none" xmlns="http://www.w3.org/2000/svg">
<path d="M9.63096 80.0087C9.43204 80.0556 9.29129 80.1063 9.20684 80.1569C9.11676 80.2076 9.04733 80.2658 8.99853 80.3427C8.94223 80.414 8.90658 80.5304 8.8803 80.673C8.85966 80.825 8.84652 81.0483 8.84652 81.3617V87.1775C8.84652 87.4758 8.85215 87.6992 8.87467 87.8343C8.89532 87.9732 8.92722 88.0839 8.97601 88.1683C9.02293 88.249 9.09424 88.3109 9.18244 88.3691C9.27628 88.4217 9.42453 88.4723 9.63096 88.5286V88.8571H6.82538V88.5286C7.08436 88.4667 7.25701 88.3954 7.35647 88.3109C7.45593 88.2321 7.52349 88.112 7.55915 87.9563C7.5948 87.8024 7.61169 87.5397 7.61169 87.1775V84.6008C7.61169 83.9234 7.62483 83.2403 7.64172 82.5459C7.66236 81.8515 7.68488 81.3805 7.71303 81.1215H7.60043L4.93372 87.7892H4.16618L1.69088 81.0164H1.57453C1.59705 81.2904 1.61957 81.7859 1.63834 82.5027C1.66086 83.2177 1.66837 83.959 1.66837 84.7115V87.1756C1.66837 87.474 1.6815 87.6973 1.69839 87.8324C1.71903 87.9713 1.75469 88.082 1.79973 88.1665C1.84852 88.2471 1.91421 88.3091 2.00616 88.3672C2.09812 88.4198 2.24825 88.4705 2.45468 88.5268V88.8552H3.05176e-05V88.5268C0.27965 88.4555 0.467314 88.3748 0.561146 88.2866C0.656855 88.2002 0.713155 88.0764 0.745058 87.9187C0.775084 87.7555 0.786343 87.5077 0.786343 87.1756V81.3599C0.786343 81.0465 0.780713 80.825 0.752563 80.6824C0.73192 80.5417 0.696265 80.4309 0.643719 80.354C0.589296 80.2752 0.51986 80.2095 0.439164 80.1644C0.352839 80.1175 0.208338 80.065 3.05176e-05 80.0068V79.6765H2.40213L4.76295 86.2204L7.35835 79.6765H9.63284V80.0068L9.63096 80.0087Z" fill="#00377B"/>
<path d="M15.2966 87.7123C15.0132 88.0126 14.7505 88.249 14.5065 88.4198C14.2663 88.5906 14.0035 88.722 13.7183 88.8195C13.4293 88.9153 13.1121 88.9622 12.7725 88.9622C11.8454 88.9622 11.1454 88.6844 10.6763 88.1346C10.209 87.5828 9.97064 86.7627 9.97064 85.6837C9.97064 85.0137 10.0907 84.4263 10.3328 83.914C10.5749 83.4036 10.9165 83.0095 11.3556 82.7336C11.8004 82.4521 12.3108 82.3132 12.8945 82.3132C13.3448 82.3132 13.7296 82.3845 14.0467 82.529C14.3676 82.6717 14.621 82.8687 14.8086 83.1183C15.0019 83.366 15.1502 83.6813 15.2553 84.0604C15.3622 84.4376 15.4204 84.933 15.4335 85.5429H11.1961V85.6668C11.1961 86.1941 11.2561 86.637 11.3762 86.9992C11.4964 87.3595 11.6878 87.641 11.9599 87.8456C12.2339 88.0482 12.5848 88.1496 13.0183 88.1496C13.3861 88.1496 13.7127 88.082 14.0129 87.9469C14.3057 87.8099 14.5984 87.5866 14.8874 87.2769L15.2984 87.7104L15.2966 87.7123ZM14.1668 84.9856C14.1405 84.5014 14.0786 84.1054 13.9867 83.7977C13.8909 83.4918 13.7502 83.2572 13.5625 83.092C13.373 82.9269 13.129 82.8462 12.8231 82.8462C12.3615 82.8462 11.9899 83.0282 11.7178 83.4017C11.4419 83.7714 11.2787 84.3006 11.2299 84.9856H14.1668Z" fill="#00377B"/>
<path d="M17.8375 83.5462L17.9295 83.5649C18.1809 83.2666 18.4099 83.0282 18.6182 82.8575C18.8321 82.681 19.0592 82.5478 19.3032 82.454C19.5452 82.3601 19.823 82.3132 20.1326 82.3132C20.3916 82.3132 20.6281 82.3264 20.8345 82.3564V83.899H20.0801C19.9731 83.655 19.8568 83.4843 19.7329 83.3754C19.6147 83.2666 19.4514 83.2121 19.2394 83.2121C19.0761 83.2121 18.9184 83.2572 18.7571 83.3491C18.5957 83.443 18.4437 83.5818 18.2954 83.7582C18.1471 83.9384 18.0439 84.1073 17.9895 84.2649C17.9332 84.4188 17.9088 84.6065 17.9088 84.8223V87.1756C17.9088 87.5828 17.9295 87.8662 17.9801 88.0201C18.0289 88.174 18.1096 88.2866 18.226 88.3579C18.3404 88.4292 18.5131 88.4855 18.742 88.5268V88.8552H16.0303V88.5268C16.1992 88.4705 16.3231 88.4255 16.3981 88.386C16.4732 88.3448 16.5389 88.2885 16.5877 88.2153C16.644 88.1458 16.6834 88.0351 16.7096 87.8887C16.7397 87.7367 16.7528 87.5096 16.7528 87.1962V84.2631C16.7528 83.9722 16.7472 83.7451 16.7378 83.5687C16.7284 83.3942 16.7003 83.2553 16.6421 83.1502C16.5858 83.0432 16.5051 82.9644 16.3962 82.9137C16.2893 82.8631 16.1316 82.818 15.929 82.7805V82.4296L17.4997 82.362H17.9144L17.8375 83.5424V83.5462Z" fill="#00377B"/>
<path d="M25.8357 82.5834V83.9909H24.9837C24.9068 83.6962 24.813 83.4635 24.7004 83.3003C24.5859 83.1314 24.4583 83.015 24.3082 82.9475C24.1599 82.878 23.9779 82.8461 23.7583 82.8461C23.443 82.8461 23.1615 82.9475 22.9213 83.1464C22.6849 83.3491 22.4897 83.6568 22.3471 84.0716C22.2101 84.4807 22.135 84.9892 22.135 85.5841C22.135 85.9651 22.165 86.316 22.2157 86.6294C22.2701 86.9447 22.364 87.2149 22.4916 87.4401C22.6229 87.6635 22.7956 87.838 23.0114 87.9618C23.2253 88.0895 23.4937 88.1514 23.8127 88.1514C24.1318 88.1514 24.4057 88.0895 24.676 87.9675C24.9406 87.8493 25.224 87.6372 25.5073 87.3313L25.8902 87.7742C25.6631 88.0275 25.4604 88.2171 25.2859 88.3578C25.1076 88.4929 24.9237 88.6074 24.7248 88.6994C24.524 88.7876 24.325 88.857 24.1318 88.902C23.9385 88.9433 23.7226 88.964 23.4956 88.964C22.6492 88.964 22.0018 88.6844 21.5532 88.1232C21.1047 87.5602 20.8814 86.7458 20.8814 85.6836C20.8814 85.023 21.0053 84.43 21.2567 83.9177C21.5101 83.4035 21.8591 83.0094 22.3114 82.7316C22.7656 82.4501 23.2854 82.3113 23.884 82.3113C24.2462 82.3113 24.5878 82.3338 24.8955 82.377C25.2089 82.4182 25.5242 82.4858 25.8376 82.5796" fill="#00377B"/>
<path d="M30.1633 87.8982L30.0657 87.8701C29.6735 88.2679 29.3057 88.5475 28.9622 88.7127C28.6226 88.8834 28.2585 88.9641 27.87 88.9641C27.536 88.9641 27.2282 88.9003 26.9692 88.7652C26.7103 88.6357 26.5113 88.4443 26.3725 88.2097C26.2299 87.9676 26.1623 87.6899 26.1623 87.3784C26.1623 86.7253 26.487 86.2205 27.1363 85.862C27.7818 85.5074 28.7539 85.2991 30.0507 85.2428V84.8055C30.0507 84.3401 30.0057 83.9704 29.9137 83.702C29.8255 83.4355 29.6829 83.2347 29.4933 83.1071C29.2982 82.9833 29.0411 82.9213 28.7202 82.9213C28.3692 82.9213 28.0859 83.0114 27.8738 83.1935C27.6599 83.3811 27.5003 83.6551 27.3915 84.0229H26.5132V83.1465C26.943 82.9232 27.2977 82.7599 27.5867 82.6549C27.8719 82.5479 28.1609 82.4653 28.4499 82.409C28.737 82.3433 29.0242 82.3152 29.3226 82.3152C29.7673 82.3152 30.122 82.3865 30.3922 82.5291C30.6606 82.6699 30.8614 82.8838 30.9984 83.1766C31.1335 83.4656 31.1992 83.9085 31.1992 84.4977V86.8341C31.1992 87.1682 31.203 87.4009 31.2067 87.5398C31.2105 87.6749 31.2217 87.8044 31.2442 87.9226C31.2686 88.0352 31.3005 88.1272 31.3475 88.1966C31.3906 88.266 31.4601 88.3261 31.5464 88.3767C31.6346 88.4274 31.7735 88.4743 31.9724 88.5306V88.859H30.1276L30.1614 87.9001L30.1633 87.8982ZM30.0526 85.7926C29.1405 85.802 28.4555 85.9221 28.007 86.1548C27.5548 86.3913 27.3277 86.7422 27.3277 87.2132C27.3277 87.4685 27.3765 87.6692 27.4759 87.8156C27.5829 87.9639 27.7124 88.0671 27.8682 88.1234C28.0258 88.1797 28.2135 88.2041 28.4255 88.2041C28.7314 88.2041 29.0092 88.1328 29.2588 87.9826C29.5083 87.8344 29.7035 87.6486 29.8386 87.4215C29.9775 87.1926 30.0507 86.9636 30.0507 86.7422V85.7945L30.0526 85.7926Z" fill="#00377B"/>
<path d="M38.9347 88.8571H36.2849V88.5286C36.4576 88.4723 36.5833 88.4273 36.6603 88.3879C36.7353 88.3466 36.8029 88.2903 36.8517 88.2171C36.9023 88.1477 36.9455 88.037 36.9718 87.885C37.0037 87.7348 37.0187 87.5096 37.0187 87.1981V85.4397C37.0187 85.1282 37.0093 84.8429 36.9943 84.5877C36.9718 84.3325 36.9455 84.1204 36.9005 83.9628C36.8592 83.7976 36.8066 83.6681 36.7428 83.5781C36.6865 83.4861 36.6152 83.4073 36.5308 83.3416C36.4482 83.2778 36.3469 83.2234 36.2474 83.184C36.1385 83.1483 35.994 83.1314 35.8233 83.1314C35.6525 83.1314 35.4817 83.1652 35.3222 83.2328C35.1646 83.3022 34.9938 83.4204 34.8024 83.5931C34.6166 83.7638 34.4796 83.9309 34.3951 84.096C34.3088 84.2649 34.2657 84.4545 34.2657 84.6684V87.1793C34.2657 87.564 34.2863 87.8324 34.3238 87.9807C34.3576 88.1327 34.427 88.249 34.5265 88.3241C34.6278 88.4029 34.793 88.4723 35.0182 88.5324V88.8608H32.3834V88.5324C32.5579 88.4761 32.6818 88.431 32.7587 88.3916C32.8319 88.3504 32.8938 88.2941 32.9483 88.2209C32.9952 88.1514 33.0383 88.0407 33.0665 87.8943C33.0965 87.7423 33.1078 87.5153 33.1078 87.2019V84.2687C33.1078 83.9778 33.1059 83.7507 33.0984 83.5743C33.089 83.3998 33.059 83.2609 33.0027 83.1558C32.9483 83.0488 32.8676 82.97 32.7587 82.9194C32.648 82.8687 32.4922 82.8236 32.2933 82.7861V82.4314L33.8659 82.3676H34.2732L34.2 83.4655L34.2938 83.4936C34.6278 83.1577 34.8981 82.9194 35.0989 82.7749C35.3034 82.6322 35.5099 82.5196 35.7182 82.4408C35.9265 82.3657 36.1461 82.3245 36.3769 82.3245C36.6227 82.3245 36.8385 82.3545 37.0243 82.4108C37.2157 82.4633 37.3865 82.5515 37.5329 82.666C37.6774 82.7842 37.7994 82.9269 37.8913 83.0995C37.9852 83.2759 38.0602 83.4823 38.1034 83.7244C38.1466 83.9628 38.1747 84.2705 38.1747 84.6459V87.1793C38.1747 87.4927 38.1822 87.7123 38.201 87.853C38.2197 87.9882 38.2516 88.097 38.2967 88.174C38.338 88.2509 38.4055 88.3128 38.49 88.3672C38.5782 88.4198 38.7208 88.4723 38.9366 88.5305V88.8589L38.9347 88.8571Z" fill="#00377B"/>
<path d="M38.7733 82.7673C38.9985 82.7297 39.1787 82.6678 39.3175 82.5777C39.4564 82.4858 39.5653 82.3713 39.6441 82.2362C39.721 82.0898 39.7848 81.9153 39.828 81.7013C39.873 81.4893 39.9199 81.1759 39.9687 80.7705H40.9277V82.4332H43.1027V83.1107H40.9277V86.1077C40.9277 86.5431 40.9427 86.8846 40.9784 87.1436C41.0122 87.4007 41.0835 87.6015 41.1773 87.7497C41.2768 87.8961 41.395 88.0012 41.517 88.0613C41.6408 88.1288 41.8078 88.157 42.003 88.157C42.1794 88.157 42.3502 88.1176 42.506 88.05C42.6636 87.9749 42.8175 87.8642 42.9714 87.7272L43.2716 88.0894C42.9545 88.4009 42.6523 88.6243 42.369 88.7631C42.0856 88.9039 41.7872 88.9714 41.4851 88.9714C40.9052 88.9714 40.4736 88.8007 40.1921 88.4591C39.9087 88.1157 39.7679 87.5808 39.7679 86.8508V83.1144H38.7733V82.7748V82.7673Z" fill="#00377B"/>
<path d="M43.495 88.5287C43.6657 88.4724 43.7915 88.4274 43.8684 88.388C43.9416 88.3467 44.0054 88.2904 44.058 88.2172C44.1049 88.1478 44.148 88.0371 44.1781 87.8907C44.2062 87.7387 44.225 87.5116 44.225 87.1982V84.265C44.225 83.9741 44.2194 83.7471 44.21 83.5707C44.2006 83.3961 44.1668 83.2573 44.1143 83.1522C44.0598 83.0452 43.981 82.9664 43.8722 82.9157C43.7596 82.865 43.6076 82.82 43.403 82.7825V82.4278L44.9738 82.364H45.3791V87.1757C45.3791 87.5604 45.3998 87.8288 45.4317 87.977C45.4692 88.129 45.5405 88.2454 45.64 88.3204C45.7394 88.3993 45.9046 88.4687 46.1316 88.5287V88.8572H43.4968V88.5287H43.495ZM45.4185 81.0954H44.1799V79.793H45.4185V81.0954Z" fill="#00377B"/>
<path d="M48.4962 87.1774C48.4962 87.5621 48.515 87.8305 48.5506 87.9787C48.5844 88.1307 48.6539 88.2471 48.7552 88.3221C48.8547 88.4009 49.0217 88.4704 49.2506 88.5304V88.8589H46.5783V88.5304C46.8035 88.4723 46.9611 88.4103 47.0493 88.3484C47.1319 88.2865 47.1976 88.2114 47.2332 88.1251C47.2708 88.035 47.297 87.9187 47.3177 87.7666C47.3308 87.6146 47.3346 87.4213 47.3346 87.1793V81.5475C47.3346 81.1196 47.3327 80.8174 47.3271 80.6504C47.3196 80.4815 47.3027 80.3333 47.2745 80.2132C47.2445 80.0931 47.2032 80.003 47.1544 79.9354C47.1 79.8716 47.0306 79.8134 46.9461 79.7778C46.8579 79.7327 46.6984 79.6952 46.4695 79.6539V79.303L48.0871 79.2373H48.4944V87.1793L48.4962 87.1774Z" fill="#00377B"/>
<path d="M54.9162 87.7123C54.6291 88.0126 54.3682 88.249 54.128 88.4198C53.8897 88.5906 53.627 88.722 53.3342 88.8195C53.0471 88.9153 52.7318 88.9622 52.3884 88.9622C51.4651 88.9622 50.7688 88.6844 50.294 88.1346C49.8249 87.5828 49.5865 86.7627 49.5865 85.6837C49.5865 85.0137 49.7104 84.4263 49.9487 83.914C50.1908 83.4036 50.5305 83.0095 50.9734 82.7336C51.42 82.4521 51.9305 82.3132 52.5085 82.3132C52.9608 82.3132 53.3455 82.3845 53.6645 82.529C53.9835 82.6717 54.2369 82.8687 54.432 83.1183C54.6178 83.366 54.7661 83.6813 54.8712 84.0604C54.9781 84.4376 55.0382 84.933 55.0551 85.5429H50.8139V85.6668C50.8139 86.1941 50.8721 86.637 50.9922 86.9992C51.1104 87.3595 51.3074 87.641 51.5758 87.8456C51.8479 88.0482 52.2007 88.1496 52.638 88.1496C53.0077 88.1496 53.3342 88.082 53.6307 87.9469C53.9235 87.8099 54.22 87.5866 54.5052 87.2769L54.9162 87.7104V87.7123ZM53.7884 84.9856C53.764 84.5014 53.7001 84.1054 53.6044 83.7977C53.5125 83.4918 53.3699 83.2572 53.1841 83.092C52.9927 82.9269 52.7468 82.8462 52.4428 82.8462C51.9811 82.8462 51.6133 83.0282 51.3356 83.4017C51.0616 83.7714 50.8964 84.3006 50.8495 84.9856H53.7902H53.7884Z" fill="#00377B"/>
<path d="M60.2665 87.1774C60.2665 87.4758 60.2778 87.6991 60.2984 87.8342C60.3191 87.9731 60.3547 88.0857 60.3998 88.1682C60.4485 88.2489 60.5124 88.3109 60.6099 88.369C60.7019 88.4216 60.8464 88.4723 61.0547 88.5286V88.857H58.2191V88.5286C58.495 88.4572 58.6826 88.3765 58.7746 88.2883C58.8684 88.202 58.9303 88.0782 58.9604 87.9205C58.9904 87.7573 59.0017 87.5095 59.0017 87.1774V81.3617C59.0017 81.0483 58.9942 80.8268 58.9716 80.6842C58.9491 80.5434 58.9116 80.4327 58.8572 80.3558C58.8065 80.277 58.737 80.2113 58.6526 80.1662C58.5682 80.1193 58.4237 80.0668 58.2172 80.0086V79.6746H61.0528V80.0086C60.8558 80.0555 60.7132 80.1062 60.6287 80.1568C60.5405 80.2075 60.4711 80.2657 60.4148 80.3426C60.3641 80.414 60.3284 80.5303 60.3059 80.6729C60.2796 80.8249 60.2646 81.0483 60.2646 81.3617V87.1774H60.2665Z" fill="#00377B"/>
<path d="M68.4524 88.8571H65.8026V88.5286C65.9771 88.4723 66.1047 88.4273 66.1779 88.3879C66.2549 88.3466 66.3206 88.2903 66.375 88.2171C66.4238 88.1477 66.4651 88.037 66.4951 87.885C66.5214 87.7348 66.5345 87.5096 66.5345 87.1981V85.4397C66.5345 85.1282 66.527 84.8429 66.5101 84.5877C66.4895 84.3325 66.4613 84.1204 66.4163 83.9628C66.375 83.7976 66.3243 83.6681 66.2605 83.5781C66.2061 83.4861 66.1291 83.4073 66.0522 83.3416C65.9678 83.2778 65.8683 83.2234 65.7632 83.184C65.6544 83.1483 65.5136 83.1314 65.3391 83.1314C65.1645 83.1314 64.9975 83.1652 64.838 83.2328C64.6879 83.3022 64.5134 83.4204 64.3238 83.5931C64.1343 83.7638 63.9992 83.9309 63.911 84.096C63.8265 84.2649 63.7852 84.4545 63.7852 84.6684V87.1793C63.7852 87.564 63.8021 87.8324 63.8378 87.9807C63.8753 88.1327 63.9447 88.249 64.0404 88.3241C64.1418 88.4029 64.305 88.4723 64.5378 88.5324V88.8608H61.8973V88.5324C62.0737 88.4761 62.1957 88.431 62.2708 88.3916C62.3458 88.3504 62.4096 88.2941 62.4622 88.2209C62.5129 88.1514 62.5523 88.0407 62.5823 87.8943C62.6123 87.7423 62.6311 87.5153 62.6311 87.2019V84.2687C62.6311 83.9778 62.6236 83.7507 62.6123 83.5743C62.6048 83.3998 62.5748 83.2609 62.5166 83.1558C62.4659 83.0488 62.3834 82.97 62.2726 82.9194C62.1619 82.8687 62.008 82.8236 61.8091 82.7861V82.4314L63.3799 82.3676H63.7908L63.7177 83.4655L63.8134 83.4936C64.1474 83.1577 64.4139 82.9194 64.6184 82.7749C64.8211 82.6322 65.0257 82.5196 65.2377 82.4408C65.4423 82.3657 65.6637 82.3245 65.8964 82.3245C66.1291 82.3245 66.3543 82.3545 66.5439 82.4108C66.7353 82.4633 66.9061 82.5515 67.0506 82.666C67.197 82.7842 67.3189 82.9269 67.4109 83.0995C67.501 83.2759 67.576 83.4823 67.6211 83.7244C67.6717 83.9628 67.6924 84.2705 67.6924 84.6459V87.1793C67.6924 87.4927 67.6999 87.7123 67.7205 87.853C67.7393 87.9882 67.775 88.097 67.8162 88.174C67.8575 88.2509 67.9251 88.3128 68.0114 88.3672C68.0921 88.4198 68.2422 88.4723 68.4543 88.5305V88.8589L68.4524 88.8571Z" fill="#00377B"/>
<path d="M70.6406 82.4296V82.758C70.4285 82.8087 70.2822 82.8556 70.2034 82.8988C70.1133 82.9438 70.0495 83.002 70.0101 83.0733C69.9669 83.1465 69.9425 83.2441 69.9425 83.3642C69.9425 83.4843 69.9613 83.6138 69.9875 83.7451C70.0138 83.8765 70.0645 84.0323 70.1283 84.2049L71.2993 87.6091L72.6693 84.3457C72.7631 84.1317 72.8194 83.9534 72.8607 83.8127C72.8963 83.6776 72.9132 83.5462 72.9132 83.4242C72.9132 83.2347 72.8607 83.0939 72.765 82.9964C72.6618 82.8969 72.4797 82.8218 72.2095 82.7599V82.4315H74.7242V82.7599C74.5459 82.7937 74.4127 82.8518 74.3207 82.925C74.2269 83.0001 74.1349 83.1183 74.0373 83.2741C73.9435 83.4355 73.8309 83.6588 73.7033 83.9441L71.4307 88.9265H70.6425L68.8165 83.899C68.6889 83.5556 68.5913 83.321 68.5181 83.1897C68.4412 83.0639 68.3624 82.9701 68.2742 82.9025C68.1878 82.8425 68.0602 82.7899 67.8951 82.7561V82.4277H70.6444L70.6406 82.4296Z" fill="#00377B"/>
<path d="M79.8399 87.7123C79.5528 88.0126 79.2901 88.249 79.048 88.4198C78.8115 88.5906 78.545 88.722 78.2598 88.8195C77.9727 88.9153 77.6574 88.9622 77.3083 88.9622C76.3869 88.9622 75.6869 88.6844 75.2159 88.1346C74.7486 87.5828 74.5103 86.7627 74.5103 85.6837C74.5103 85.0137 74.6285 84.4263 74.8706 83.914C75.1127 83.4036 75.4505 83.0095 75.8952 82.7336C76.34 82.4521 76.8523 82.3132 77.4284 82.3132C77.8826 82.3132 78.2654 82.3845 78.5826 82.529C78.9054 82.6717 79.1587 82.8687 79.3482 83.1183C79.5378 83.366 79.6879 83.6813 79.793 84.0604C79.9 84.4376 79.9582 84.933 79.9694 85.5429H75.7338V85.6668C75.7338 86.1941 75.792 86.637 75.9159 86.9992C76.0303 87.3595 76.2311 87.641 76.4995 87.8456C76.7716 88.0482 77.1207 88.1496 77.5579 88.1496C77.9239 88.1496 78.2598 88.082 78.5469 87.9469C78.8415 87.8099 79.1381 87.5866 79.4289 87.2769L79.8399 87.7104V87.7123ZM78.7083 84.9856C78.682 84.5014 78.6239 84.1054 78.53 83.7977C78.4343 83.4918 78.2936 83.2572 78.1022 83.092C77.9164 82.9269 77.6705 82.8462 77.3646 82.8462C76.9011 82.8462 76.5352 83.0282 76.2612 83.4017C75.9815 83.7714 75.822 84.3006 75.7751 84.9856H78.7102H78.7083Z" fill="#00377B"/>
<path d="M85.0663 83.899H84.4226C84.3251 83.6325 84.2106 83.4186 84.0774 83.2647C83.9404 83.1108 83.7883 83.002 83.6213 82.9381C83.4487 82.8762 83.2422 82.8443 82.9926 82.8443C82.6361 82.8443 82.3471 82.925 82.1369 83.0958C81.9211 83.2647 81.816 83.4936 81.816 83.7864C81.816 83.9947 81.8592 84.1655 81.9474 84.3006C82.0281 84.432 82.1613 84.5577 82.3452 84.6759C82.5179 84.7904 82.8388 84.9443 83.2892 85.1395C83.7489 85.3365 84.0999 85.5167 84.3513 85.6837C84.5972 85.8469 84.7905 86.0421 84.935 86.2636C85.0776 86.4831 85.147 86.744 85.147 87.0461C85.147 87.3989 85.087 87.6992 84.9631 87.9413C84.843 88.1815 84.676 88.3842 84.4564 88.5362C84.235 88.6882 83.976 88.797 83.672 88.8646C83.3699 88.9321 83.0396 88.9641 82.683 88.9641C82.3039 88.9641 81.938 88.9359 81.587 88.8833C81.2324 88.8252 80.8871 88.7557 80.5493 88.6619V87.2582H81.2098C81.3299 87.6673 81.5101 87.9676 81.7484 88.1533C81.9849 88.341 82.3152 88.4311 82.7299 88.4311C82.8913 88.4311 83.0489 88.4179 83.2028 88.386C83.3623 88.3485 83.4993 88.2941 83.6157 88.2134C83.7414 88.1346 83.8371 88.0314 83.9103 87.8962C83.9798 87.7611 84.0154 87.5885 84.0154 87.3877C84.0154 87.1625 83.9704 86.9748 83.8822 86.8303C83.7921 86.6896 83.6532 86.5582 83.4637 86.44C83.276 86.3199 82.9439 86.1603 82.4691 85.9577C82.06 85.7869 81.7353 85.6217 81.4876 85.4604C81.2399 85.2971 81.0428 85.1075 80.9058 84.888C80.7651 84.6665 80.6919 84.4076 80.6919 84.111C80.6919 83.7413 80.7913 83.4204 80.9903 83.1521C81.1911 82.88 81.4744 82.6717 81.8573 82.529C82.2326 82.3845 82.6736 82.3132 83.1803 82.3132C83.4749 82.3132 83.7639 82.3264 84.0361 82.3583C84.3119 82.3845 84.661 82.4446 85.072 82.529V83.899H85.0663Z" fill="#00377B"/>
<path d="M85.4586 82.7673C85.6781 82.7297 85.8621 82.6678 85.999 82.5777C86.1398 82.4858 86.2505 82.3713 86.3256 82.2362C86.4119 82.0898 86.4701 81.9153 86.5151 81.7013C86.5583 81.4893 86.6052 81.1759 86.654 80.7705H87.6073V82.4332H89.7824V83.1107H87.6073V86.1077C87.6073 86.5431 87.6261 86.8846 87.6636 87.1436C87.6974 87.4007 87.7631 87.6015 87.8644 87.7497C87.9601 87.8961 88.0727 88.0012 88.1985 88.0613C88.328 88.1288 88.4818 88.157 88.6864 88.157C88.8628 88.157 89.0336 88.1176 89.1856 88.05C89.3432 87.9749 89.5027 87.8642 89.6547 87.7272L89.9531 88.0894C89.6397 88.4009 89.3338 88.6243 89.0486 88.7631C88.7652 88.9039 88.4687 88.9714 88.1666 88.9714C87.5886 88.9714 87.1569 88.8007 86.8773 88.4591C86.5921 88.1157 86.4513 87.5808 86.4513 86.8508V83.1144H85.4567V82.7748L85.4586 82.7673Z" fill="#00377B"/>
<path d="M92.267 83.4634L92.359 83.4916C92.6292 83.2232 92.8488 83.0187 93.0252 82.8817C93.1978 82.7466 93.3611 82.6358 93.5281 82.5533C93.6858 82.4707 93.8396 82.4125 93.9823 82.375C94.1193 82.3374 94.2656 82.3206 94.4139 82.3206C94.8662 82.3206 95.2265 82.4219 95.5099 82.6283C95.7914 82.8329 95.9903 83.1519 96.0954 83.5779C96.4313 83.2382 96.7015 82.9849 96.9136 82.8273C97.1219 82.6621 97.3358 82.5401 97.5517 82.4482C97.7693 82.36 98.0039 82.3206 98.2535 82.3206C98.5538 82.3206 98.809 82.36 99.0323 82.4482C99.2444 82.5401 99.4283 82.6734 99.5822 82.8573C99.7286 83.0374 99.8374 83.2664 99.9106 83.5385C99.98 83.8106 100.012 84.1784 100.012 84.6438V87.1773C100.012 87.517 100.027 87.7553 100.046 87.8829C100.07 88.0143 100.102 88.1138 100.145 88.1832C100.19 88.2545 100.248 88.3202 100.338 88.3709C100.425 88.4253 100.567 88.4722 100.768 88.5285V88.8569H98.1221V88.5285C98.2985 88.4722 98.4224 88.4272 98.4975 88.3877C98.5744 88.3465 98.6401 88.2902 98.6908 88.217C98.7414 88.1475 98.7808 88.0368 98.8127 87.8848C98.8409 87.7347 98.854 87.5095 98.854 87.1979V85.4395C98.854 85.0586 98.8447 84.7471 98.824 84.4975C98.8034 84.2479 98.7733 84.0489 98.7283 83.8988C98.6889 83.7562 98.6382 83.6342 98.5725 83.5516C98.5162 83.4616 98.4449 83.3921 98.3699 83.3283C98.2986 83.2664 98.2085 83.2157 98.0996 83.1782C98.0002 83.1444 97.8594 83.1275 97.6905 83.1275C97.5104 83.1275 97.3433 83.1632 97.1913 83.2307C97.0374 83.3039 96.8685 83.4259 96.6865 83.5948C96.5026 83.7637 96.3712 83.9401 96.2924 84.1127C96.2098 84.2816 96.1723 84.4881 96.1723 84.7189V87.1736C96.1723 87.5132 96.1836 87.7516 96.208 87.8792C96.2286 88.0105 96.2624 88.11 96.3074 88.1794C96.3468 88.2507 96.4107 88.3164 96.497 88.3671C96.5777 88.4215 96.724 88.4684 96.9248 88.5247V88.8531H94.2825V88.5247C94.4571 88.4684 94.5828 88.4234 94.6597 88.384C94.7367 88.3427 94.7986 88.2864 94.8512 88.2132C94.9018 88.1438 94.9412 88.0331 94.9675 87.8811C95.0032 87.7309 95.0144 87.5057 95.0144 87.1942V85.4358C95.0144 85.0398 95.005 84.7133 94.9788 84.4618C94.96 84.2103 94.9243 84.0095 94.8737 83.8594C94.8286 83.7036 94.7686 83.5798 94.6954 83.486C94.6241 83.3921 94.549 83.3208 94.4683 83.272C94.3951 83.2213 94.3051 83.1857 94.2018 83.1613C94.0986 83.135 93.9804 83.1256 93.8509 83.1256C93.6689 83.1256 93.4943 83.1632 93.3348 83.2495C93.1716 83.3321 93.0083 83.4522 92.8356 83.6079C92.6705 83.7637 92.5448 83.927 92.4566 84.0977C92.3759 84.2666 92.3346 84.4524 92.3346 84.6495V87.1717C92.3346 87.4269 92.3383 87.6221 92.3533 87.7572C92.3627 87.8923 92.3871 87.9955 92.4153 88.0706C92.4453 88.1457 92.481 88.2076 92.5279 88.2564C92.571 88.3014 92.6367 88.3465 92.7212 88.3896C92.8037 88.4347 92.9257 88.4759 93.0909 88.521V88.8494H90.4561V88.521C90.625 88.4647 90.7469 88.4196 90.8239 88.3802C90.8971 88.3389 90.959 88.2827 91.0153 88.2095C91.0678 88.14 91.111 88.0293 91.1373 87.8829C91.1617 87.7309 91.1786 87.5038 91.1786 87.1904V84.2573C91.1786 83.9664 91.1692 83.7393 91.1617 83.5629C91.1542 83.3884 91.1223 83.2495 91.0697 83.1444C91.0172 83.0374 90.9327 82.9586 90.8258 82.9079C90.7132 82.8573 90.5612 82.8122 90.3566 82.7747V82.42L91.9349 82.3562H92.3421L92.267 83.454V83.4634Z" fill="#00377B"/>
<path d="M106.113 87.7123C105.828 88.0126 105.567 88.249 105.323 88.4198C105.083 88.5906 104.82 88.722 104.537 88.8195C104.248 88.9153 103.93 88.9622 103.589 88.9622C102.664 88.9622 101.969 88.6844 101.493 88.1346C101.022 87.5828 100.791 86.7627 100.791 85.6837C100.791 85.0137 100.909 84.4263 101.149 83.914C101.389 83.4036 101.733 83.0095 102.174 82.7336C102.615 82.4521 103.129 82.3132 103.709 82.3132C104.163 82.3132 104.546 82.3845 104.865 82.529C105.182 82.6717 105.439 82.8687 105.627 83.1183C105.818 83.366 105.968 83.6813 106.072 84.0604C106.179 84.4376 106.239 84.933 106.25 85.5429H102.011V85.6668C102.011 86.1941 102.072 86.637 102.191 86.9992C102.313 87.3595 102.504 87.641 102.776 87.8456C103.05 88.0482 103.401 88.1496 103.837 88.1496C104.201 88.1496 104.535 88.082 104.829 87.9469C105.124 87.8099 105.419 87.5866 105.706 87.2769L106.115 87.7104L106.113 87.7123ZM104.985 84.9856C104.957 84.5014 104.895 84.1054 104.805 83.7977C104.709 83.4918 104.568 83.2572 104.381 83.092C104.195 82.9269 103.951 82.8462 103.638 82.8462C103.176 82.8462 102.806 83.0282 102.538 83.4017C102.26 83.7714 102.097 84.3006 102.046 84.9856H104.985Z" fill="#00377B"/>
<path d="M113.117 88.8571H110.467V88.5286C110.643 88.4723 110.759 88.4273 110.84 88.3879C110.919 88.3466 110.981 88.2903 111.032 88.2171C111.084 88.1477 111.125 88.037 111.154 87.885C111.184 87.7348 111.195 87.5096 111.195 87.1981V85.4397C111.195 85.1282 111.191 84.8429 111.172 84.5877C111.154 84.3325 111.125 84.1204 111.08 83.9628C111.035 83.7976 110.985 83.6681 110.923 83.5781C110.866 83.4861 110.791 83.4073 110.711 83.3416C110.624 83.2778 110.531 83.2234 110.422 83.184C110.318 83.1483 110.174 83.1314 110.001 83.1314C109.829 83.1314 109.66 83.1652 109.502 83.2328C109.348 83.3022 109.174 83.4204 108.986 83.5931C108.798 83.7638 108.66 83.9309 108.577 84.096C108.489 84.2649 108.446 84.4545 108.446 84.6684V87.1793C108.446 87.564 108.462 87.8324 108.496 87.9807C108.536 88.1327 108.605 88.249 108.705 88.3241C108.806 88.4029 108.969 88.4723 109.196 88.5324V88.8608H106.563V88.5324C106.734 88.4761 106.858 88.431 106.939 88.3916C107.008 88.3504 107.074 88.2941 107.126 88.2209C107.177 88.1514 107.216 88.0407 107.248 87.8943C107.275 87.7423 107.291 87.5153 107.291 87.2019V84.2687C107.291 83.9778 107.286 83.7507 107.275 83.5743C107.267 83.3998 107.237 83.2609 107.181 83.1558C107.128 83.0488 107.047 82.97 106.94 82.9194C106.824 82.8687 106.668 82.8236 106.469 82.7861V82.4314L108.042 82.3676H108.451L108.378 83.4655L108.47 83.4936C108.804 83.1577 109.076 82.9194 109.277 82.7749C109.481 82.6322 109.69 82.5196 109.894 82.4408C110.106 82.3657 110.328 82.3245 110.559 82.3245C110.803 82.3245 111.018 82.3545 111.208 82.4108C111.398 82.4633 111.568 82.5515 111.713 82.666C111.859 82.7842 111.977 82.9269 112.071 83.0995C112.163 83.2759 112.235 83.4823 112.283 83.7244C112.328 83.9628 112.353 84.2705 112.353 84.6459V87.1793C112.353 87.4927 112.36 87.7123 112.381 87.853C112.396 87.9882 112.43 88.097 112.475 88.174C112.52 88.2509 112.584 88.3128 112.67 88.3672C112.756 88.4198 112.901 88.4723 113.115 88.5305V88.8589L113.117 88.8571Z" fill="#00377B"/>
<path d="M112.679 82.7673C112.901 82.7297 113.088 82.6678 113.225 82.5777C113.36 82.4858 113.473 82.3713 113.552 82.2362C113.627 82.0898 113.693 81.9153 113.736 81.7013C113.779 81.4893 113.828 81.1759 113.878 80.7705H114.832V82.4332H117.005V83.1107H114.832V86.1077C114.832 86.5431 114.851 86.8846 114.886 87.1436C114.922 87.4007 114.989 87.6015 115.085 87.7497C115.188 87.8961 115.297 88.0012 115.425 88.0613C115.552 88.1288 115.708 88.157 115.911 88.157C116.091 88.157 116.258 88.1176 116.412 88.05C116.568 87.9749 116.725 87.8642 116.875 87.7272L117.181 88.0894C116.859 88.4009 116.558 88.6243 116.273 88.7631C115.988 88.9039 115.695 88.9714 115.385 88.9714C114.807 88.9714 114.381 88.8007 114.098 88.4591C113.815 88.1157 113.674 87.5808 113.674 86.8508V83.1144H112.679V82.7748V82.7673Z" fill="#00377B"/>
<path d="M121.905 83.899H121.259C121.164 83.6325 121.045 83.4186 120.91 83.2647C120.779 83.1108 120.625 83.002 120.452 82.9381C120.283 82.8762 120.077 82.8443 119.829 82.8443C119.467 82.8443 119.182 82.925 118.974 83.0958C118.754 83.2647 118.651 83.4936 118.651 83.7864C118.651 83.9947 118.692 84.1655 118.778 84.3006C118.863 84.432 118.998 84.5577 119.174 84.6759C119.354 84.7904 119.67 84.9443 120.12 85.1395C120.58 85.3365 120.929 85.5167 121.182 85.6837C121.432 85.8469 121.627 86.0421 121.764 86.2636C121.909 86.4831 121.98 86.744 121.98 87.0461C121.98 87.3989 121.918 87.6992 121.798 87.9413C121.674 88.1815 121.507 88.3842 121.286 88.5362C121.07 88.6882 120.803 88.797 120.503 88.8646C120.197 88.9321 119.872 88.9641 119.51 88.9641C119.148 88.9641 118.769 88.9359 118.411 88.8833C118.06 88.8252 117.716 88.7557 117.378 88.6619V87.2582H118.035C118.159 87.6673 118.337 87.9676 118.576 88.1533C118.814 88.341 119.139 88.4311 119.555 88.4311C119.719 88.4311 119.874 88.4179 120.028 88.386C120.182 88.3485 120.321 88.2941 120.443 88.2134C120.563 88.1346 120.657 88.0314 120.732 87.8962C120.801 87.7611 120.841 87.5885 120.841 87.3877C120.841 87.1625 120.798 86.9748 120.706 86.8303C120.614 86.6896 120.477 86.5582 120.289 86.44C120.1 86.3199 119.769 86.1603 119.293 85.9577C118.883 85.7869 118.555 85.6217 118.313 85.4604C118.065 85.2971 117.87 85.1075 117.727 84.888C117.589 84.6665 117.517 84.4076 117.517 84.111C117.517 83.7413 117.617 83.4204 117.821 83.1521C118.018 82.88 118.304 82.6717 118.681 82.529C119.058 82.3845 119.501 82.3132 120.008 82.3132C120.298 82.3132 120.586 82.3264 120.865 82.3583C121.141 82.3845 121.486 82.4446 121.901 82.529V83.899H121.905Z" fill="#00377B"/>
<path d="M70.3803 12.103C70.3841 13.6301 70.0901 15.1573 69.521 16.58C68.9538 18.0028 68.1077 19.3175 67.0453 20.4348C64.9301 22.6847 61.8854 24.0885 58.7135 24.1948C57.1314 24.2517 55.5246 23.9994 54.0202 23.4322C52.5197 22.8611 51.1196 21.9923 49.9435 20.8711C48.7692 19.7519 47.8169 18.386 47.1738 16.8817C46.8532 16.1285 46.6047 15.3451 46.4415 14.5426C46.2803 13.7402 46.1968 12.9206 46.193 12.103C46.1968 10.4659 46.525 8.82492 47.1719 7.32246C47.815 5.81811 48.7654 4.45224 49.9416 3.33108C51.1159 2.20803 52.5178 1.34109 54.0183 0.770075C55.5227 0.200962 57.1314 -0.0475484 58.7135 0.00746589C61.8854 0.1137 64.932 1.52131 67.0472 3.7712C68.1096 4.89046 68.9538 6.20511 69.5229 7.62789C70.092 9.04877 70.386 10.5778 70.3822 12.1049L70.3803 12.103ZM70.3803 12.103C70.3765 10.5759 70.0692 9.04877 69.466 7.64876C68.8646 6.24874 67.9768 4.97772 66.8803 3.93624C65.7838 2.89287 64.4767 2.08852 63.0805 1.56114C61.6805 1.03756 60.1856 0.808016 58.7135 0.864927C55.7636 0.973059 52.9465 2.28392 50.9869 4.37636C50.0023 5.41594 49.2207 6.63574 48.6952 7.95418C48.1697 9.27263 47.8985 10.6859 47.9004 12.103C47.8985 13.5201 48.1679 14.9353 48.6933 16.2537C49.2169 17.5722 49.9985 18.7939 50.9831 19.8335C52.9427 21.9259 55.7617 23.2368 58.7135 23.3449C60.1856 23.3999 61.6805 23.1723 63.0805 22.6468C64.4767 22.1175 65.7838 21.3132 66.8803 20.2698C67.9768 19.2283 68.8646 17.9554 69.466 16.5554C70.0692 15.1554 70.3765 13.6282 70.3803 12.1011V12.103Z" fill="url(#paint0_linear_719_498)"/>
<path d="M76.2516 52.6655V13.8748H111.971V21.0399H83.4168V29.6601H106.367V36.8802H83.4168V52.6655H76.2516Z" fill="url(#paint1_linear_719_498)"/>
<path d="M114.881 18.2929V11.1809H121.938V18.2929H114.881ZM114.881 52.6655V21.4174H121.938V52.6655H114.881Z" fill="url(#paint2_linear_719_498)"/>
<path d="M32.8094 25.2588L20.526 41.636H19.126L7.11205 25.2038V52.6256H3.05176e-05V14.9124H8.18957L19.9892 31.1283L31.7888 14.9124H39.9233V52.6256H32.8113V25.2569L32.8094 25.2588Z" fill="url(#paint3_linear_719_498)"/>
<path d="M72.894 26.0139L56.678 63.6721H49.4579L54.4149 52.1418L43.8009 26.012H51.4517L55.4924 37.4872L58.0249 44.9748L60.7719 37.6484L65.6207 26.012H72.894V26.0139Z" fill="url(#paint4_linear_719_498)"/>
<path d="M61.0051 10.5378C61.0051 14.0871 55.6251 14.0871 55.6251 10.5378C55.6251 6.98839 61.0051 6.98839 61.0051 10.5378ZM56.0368 15.656V34.1503H60.5954V15.656H56.0368Z" fill="url(#paint5_linear_719_498)"/>
<path d="M57.0509 67.7244C57.3549 67.7244 57.6391 67.744 57.9036 67.7832C58.1738 67.8168 58.4074 67.8896 58.6044 68.0016C58.807 68.108 58.9646 68.2648 59.0772 68.472C59.1953 68.6793 59.2544 68.9509 59.2544 69.2869C59.2544 69.4718 59.2207 69.637 59.1531 69.7826C59.0912 69.9282 59.004 70.057 58.8914 70.169C58.7845 70.2754 58.6578 70.3679 58.5115 70.4463C58.3652 70.5191 58.2104 70.5751 58.0472 70.6143C58.5537 70.6647 58.9505 70.8131 59.2376 71.0595C59.5246 71.306 59.6681 71.656 59.6681 72.1096C59.6681 72.4625 59.6147 72.7565 59.5077 72.9917C59.4008 73.227 59.246 73.4174 59.0434 73.563C58.8408 73.7086 58.5903 73.8122 58.292 73.8738C57.9937 73.9354 57.6504 73.9662 57.262 73.9662H53.4966V73.479C53.9975 73.479 54.248 73.3502 54.248 73.0925V68.6317C54.248 68.374 53.9975 68.2452 53.4966 68.2452V67.7244H57.0509ZM55.5397 70.9755V73.269H57.1269C57.3464 73.269 57.5293 73.241 57.6757 73.185C57.8277 73.1234 57.9487 73.0393 58.0387 72.9329C58.1344 72.8265 58.2019 72.7005 58.2413 72.5549C58.2807 72.4037 58.3004 72.2357 58.3004 72.0508C58.3004 71.6644 58.2019 71.39 58.0049 71.2275C57.808 71.0595 57.5153 70.9755 57.1269 70.9755H55.5397ZM55.5397 68.4552V70.4127H56.9074C57.2451 70.4127 57.4984 70.3314 57.6672 70.169C57.8361 70.0066 57.9205 69.749 57.9205 69.3961C57.9205 69.0769 57.8333 68.8417 57.6588 68.6905C57.4843 68.5337 57.2339 68.4552 56.9074 68.4552H55.5397Z" fill="#00377B"/>
<path d="M65.6377 70.169C65.4351 70.169 65.2859 70.1942 65.1902 70.2446C65.0946 70.2894 65.027 70.3595 64.9876 70.4547L63.4511 74.1343C63.3329 74.4199 63.2231 74.6691 63.1218 74.8819C63.0261 75.1004 62.9164 75.2824 62.7925 75.428C62.6743 75.5792 62.5336 75.6912 62.3704 75.764C62.2072 75.8424 62.0018 75.8817 61.7541 75.8817C61.3657 75.8817 61.0506 75.7836 60.8085 75.5876C60.5665 75.3972 60.4455 75.1396 60.4455 74.8147C60.4455 74.7587 60.4568 74.6943 60.4793 74.6215C60.5018 74.5487 60.5384 74.4815 60.589 74.4199C60.6397 74.3583 60.7016 74.3051 60.7748 74.2603C60.8479 74.2211 60.9352 74.2015 61.0365 74.2015C61.2335 74.2015 61.3798 74.2491 61.4755 74.3443C61.5712 74.4395 61.619 74.5515 61.619 74.6803C61.619 74.8259 61.574 74.9379 61.4839 75.0164C61.3995 75.1004 61.2841 75.1508 61.1378 75.1676C61.1885 75.2516 61.2588 75.3188 61.3489 75.3692C61.4445 75.4252 61.5993 75.4532 61.8132 75.4532C62.0158 75.4532 62.1819 75.372 62.3113 75.2096C62.4408 75.0472 62.5843 74.7951 62.7419 74.4535L61.0534 70.4631C60.9577 70.267 60.7551 70.169 60.4455 70.169V69.6902H62.8601V70.169H62.4464C62.2832 70.169 62.2016 70.2222 62.2016 70.3286C62.2016 70.3735 62.21 70.4155 62.2269 70.4547L63.3244 73.2018L64.4388 70.5303C64.4557 70.4799 64.4642 70.4351 64.4642 70.3959C64.4642 70.2446 64.3432 70.169 64.1011 70.169H63.8479V69.6902H65.6377V70.169Z" fill="#00377B"/>
<defs>
<linearGradient id="paint0_linear_719_498" x1="46.193" y1="12.1011" x2="71.234" y2="12.1011" gradientUnits="userSpaceOnUse">
<stop stop-color="#007BC2"/>
<stop offset="1" stop-color="#00377C"/>
</linearGradient>
<linearGradient id="paint1_linear_719_498" x1="76.2516" y1="33.2701" x2="111.971" y2="33.2701" gradientUnits="userSpaceOnUse">
<stop stop-color="#1A1A1A"/>
<stop offset="1" stop-color="#4D4D4D"/>
</linearGradient>
<linearGradient id="paint2_linear_719_498" x1="114.881" y1="31.9232" x2="121.938" y2="31.9232" gradientUnits="userSpaceOnUse">
<stop stop-color="#1A1A1A"/>
<stop offset="1" stop-color="#4D4D4D"/>
</linearGradient>
<linearGradient id="paint3_linear_719_498" x1="3.05176e-05" y1="33.7728" x2="39.9214" y2="33.7728" gradientUnits="userSpaceOnUse">
<stop stop-color="#007BC2"/>
<stop offset="1" stop-color="#00377C"/>
</linearGradient>
<linearGradient id="paint4_linear_719_498" x1="43.8009" y1="44.8439" x2="72.894" y2="44.8439" gradientUnits="userSpaceOnUse">
<stop stop-color="#007BC2"/>
<stop offset="1" stop-color="#00377C"/>
</linearGradient>
<linearGradient id="paint5_linear_719_498" x1="55.6232" y1="21.0132" x2="61.0051" y2="21.0132" gradientUnits="userSpaceOnUse">
<stop stop-color="#1A1A1A"/>
<stop offset="1" stop-color="#4D4D4D"/>
</linearGradient>
</defs>
</svg>
