<svg width="24" height="24" viewBox="0 0 24 24" fill="none" xmlns="http://www.w3.org/2000/svg">
<path d="M10.6094 1.34526C11.3848 0.59519 12.6152 0.59519 13.3906 1.34526L14.2639 2.1901C14.7073 2.61902 15.3238 2.81933 15.9346 2.73294L17.1377 2.56276C18.2058 2.41168 19.2013 3.13495 19.3877 4.1975L19.5976 5.39431C19.7042 6.00192 20.0853 6.52635 20.6302 6.81548L21.7035 7.38497C22.6565 7.89059 23.0367 9.06085 22.563 10.03L22.0294 11.1217C21.7584 11.6759 21.7584 12.3241 22.0294 12.8783L22.563 13.97C23.0367 14.9391 22.6565 16.1094 21.7035 16.615L20.6302 17.1845C20.0853 17.4737 19.7042 17.9981 19.5976 18.6057L19.3877 19.8025C19.2013 20.8651 18.2058 21.5883 17.1377 21.4372L15.9346 21.2671C15.3238 21.1807 14.7073 21.381 14.2639 21.8099L13.3906 22.6547C12.6152 23.4048 11.3848 23.4048 10.6094 22.6547L9.7361 21.8099C9.29273 21.381 8.67623 21.1807 8.06541 21.2671L6.86231 21.4372C5.79417 21.5883 4.79868 20.8651 4.61229 19.8025L4.40235 18.6057C4.29577 17.9981 3.91475 17.4737 3.36981 17.1845L2.29645 16.615C1.3435 16.1094 0.96326 14.9391 1.43702 13.97L1.97065 12.8783C2.24156 12.3241 2.24156 11.6759 1.97064 11.1217L1.43702 10.03C0.96326 9.06085 1.3435 7.89059 2.29646 7.38497L3.36981 6.81548C3.91475 6.52635 4.29577 6.00192 4.40235 5.39431L4.61229 4.1975C4.79868 3.13495 5.79417 2.41168 6.86231 2.56276L8.06541 2.73294C8.67623 2.81933 9.29273 2.61902 9.7361 2.1901L10.6094 1.34526Z" fill="#00377B"/>
<path d="M8 12L10.6674 14L16 10" stroke="#EEF5FF" stroke-width="2" stroke-linecap="round" stroke-linejoin="round"/>
</svg>
